<mxfile host="app.diagrams.net" modified="2023-11-25T06:15:31.633Z" agent="Mozilla/5.0 (Windows NT 10.0; Win64; x64) AppleWebKit/537.36 (KHTML, like Gecko) Chrome/119.0.0.0 Safari/537.36" etag="bZddEY7FjBVj1xVZsZxp" version="22.1.4" type="device">
  <diagram name="페이지-1" id="hKErau1BkpwbUh1Rq2Ij">
    <mxGraphModel dx="2575" dy="1631" grid="0" gridSize="10" guides="1" tooltips="1" connect="1" arrows="1" fold="1" page="0" pageScale="1" pageWidth="827" pageHeight="1169" math="0" shadow="0">
      <root>
        <mxCell id="0" />
        <mxCell id="1" parent="0" />
        <mxCell id="ZQMIgJexMDCK2fhlYDLp-2" value="" style="shape=or;whiteSpace=wrap;html=1;fontSize=16;rotation=-90;" vertex="1" parent="1">
          <mxGeometry x="385.5" y="8.5" width="75" height="80" as="geometry" />
        </mxCell>
        <mxCell id="ZQMIgJexMDCK2fhlYDLp-3" value="" style="ellipse;whiteSpace=wrap;html=1;aspect=fixed;fontSize=16;" vertex="1" parent="1">
          <mxGeometry x="395" y="-44" width="56" height="56" as="geometry" />
        </mxCell>
      </root>
    </mxGraphModel>
  </diagram>
</mxfile>
